<?xml version="1.0" encoding="UTF-8" standalone="no"?>
<!DOCTYPE svg PUBLIC "-//W3C//DTD SVG 1.1//EN" "http://www.w3.org/Graphics/SVG/1.1/DTD/svg11.dtd">
<svg width="100%" height="100%" viewBox="0 0 443 568" version="1.1" xmlns="http://www.w3.org/2000/svg" xmlns:xlink="http://www.w3.org/1999/xlink" xml:space="preserve" xmlns:serif="http://www.serif.com/" style="fill-rule:evenodd;clip-rule:evenodd;stroke-linecap:round;stroke-linejoin:round;stroke-miterlimit:1.5;">
    <g id="Artboard1" transform="matrix(1,0,0,1,-181.337,-19.7452)">
        <rect x="181.337" y="19.745" width="442.44" height="567.056" style="fill:none;"/>
        <clipPath id="_clip1">
            <rect x="181.337" y="19.745" width="442.44" height="567.056"/>
        </clipPath>
        <g clip-path="url(#_clip1)">
            <g transform="matrix(-2.60129,0.000312633,-0.000271081,-2.25555,741.934,767.591)">
                <path d="M130.314,82.513C130.314,82.513 47.591,187.974 47.591,233.171C47.591,285.826 84.658,328.574 130.314,328.574C175.97,328.574 213.037,285.826 213.037,233.171C213.037,187.974 130.314,82.513 130.314,82.513Z" style="fill:rgb(77,55,52);stroke:rgb(185,195,194);stroke-width:4.93px;"/>
            </g>
            <g transform="matrix(0.0342032,0,0,-0.0342032,172.726,242.688)">
                <path d="M7338,3977.2C6977.2,3584.1 6467.2,2442 6380.1,1834.9C6372.6,1770.2 6357.7,1718 6347.7,1722.9C6340.2,1727.9 6248.2,1772.7 6146.2,1822.4C5892.4,1946.8 5698.3,1991.6 5419.7,1991.6C4770.3,1991.6 4138.3,1635.8 3817.3,1090.9C3546.1,623.2 3419.2,-21.3 3481.4,-645.8C3538.6,-1218.1 3663,-1668.4 3894.4,-2156.1C4290,-2984.6 4817.5,-3474.8 5447,-3599.2C5621.2,-3634 5685.9,-3636.5 5850.1,-3611.6C6066.6,-3581.7 6350.2,-3462.3 6546.8,-3320.5C6614,-3273.2 6673.7,-3233.4 6681.2,-3233.4C6686.2,-3233.4 6775.8,-3288.1 6880.3,-3355.3C7335.6,-3653.9 7778.5,-3703.6 8241.3,-3509.5C8965.3,-3203.5 9604.8,-2235.6 9828.7,-1106C9895.9,-765.1 9920.8,-195.4 9880.9,108.2C9751.5,1076.1 9226.5,1725.5 8400.5,1939.5C8159.2,2001.7 7790.9,2009.2 7576.9,1954.4C7360.4,1899.7 7051.9,1742.9 6885.2,1608.5L6743.4,1494L6743.4,1611C6743.4,1735.4 6793.2,1971.8 6857.8,2173.3C6895.1,2282.8 6902.6,2290.2 6939.9,2257.9C6962.3,2238 7029.5,2195.7 7091.7,2163.3C7188.8,2111.1 7236,2103.6 7464.9,2106.1C7678.9,2108.6 7763.5,2121 7937.6,2178.3C8188.9,2257.9 8395.4,2350 8676.6,2504.2L8883.1,2616.2L8728.8,2815.2C8405.3,3235.7 8052,3494.5 7713.6,3561.6C7624,3579 7546.9,3596.4 7541.9,3598.9C7536.9,3603.9 7569.3,3648.7 7611.6,3700.9C7706.1,3815.3 7713.6,3924.8 7631.5,4002C7544.6,4084.2 7427.6,4074.2 7338,3977.2ZM7848.1,3111.3C7915.3,3079 8044.6,2981.9 8134.2,2897.3L8298.4,2740.6L8111.8,2656C7671.4,2449.5 7238.5,2432.1 7141.4,2611.2C7056.8,2770.5 7173.7,3039.2 7377.8,3158.6C7457.5,3203.4 7711.2,3178.5 7848.1,3111.3Z" style="fill:rgb(213,229,68);fill-rule:nonzero;"/>
            </g>
        </g>
    </g>
</svg>
