<?xml version="1.0" encoding="UTF-8" standalone="no"?>
<!DOCTYPE svg PUBLIC "-//W3C//DTD SVG 1.1//EN" "http://www.w3.org/Graphics/SVG/1.1/DTD/svg11.dtd">
<svg width="100%" height="100%" viewBox="0 0 443 568" version="1.1" xmlns="http://www.w3.org/2000/svg" xmlns:xlink="http://www.w3.org/1999/xlink" xml:space="preserve" xmlns:serif="http://www.serif.com/" style="fill-rule:evenodd;clip-rule:evenodd;stroke-linecap:round;stroke-linejoin:round;stroke-miterlimit:1.5;">
    <g id="Artboard1" transform="matrix(1,0,0,1,-181.337,-19.7452)">
        <rect x="181.337" y="19.745" width="442.44" height="567.056" style="fill:none;"/>
        <clipPath id="_clip1">
            <rect x="181.337" y="19.745" width="442.44" height="567.056"/>
        </clipPath>
        <g clip-path="url(#_clip1)">
            <g transform="matrix(-2.60129,0.000312633,-0.000271081,-2.25555,741.934,767.591)">
                <path d="M130.314,82.513C130.314,82.513 47.591,187.974 47.591,233.171C47.591,285.826 84.658,328.574 130.314,328.574C175.97,328.574 213.037,285.826 213.037,233.171C213.037,187.974 130.314,82.513 130.314,82.513Z" style="fill:rgb(77,55,52);stroke:rgb(185,195,194);stroke-width:4.93px;"/>
            </g>
            <g transform="matrix(1,0,0,1,181.337,19.7452)">
                <rect x="127.587" y="253.378" width="102.916" height="47.531" style="fill:rgb(77,55,52);"/>
            </g>
            <g transform="matrix(0.532232,0,0,1.6051,372.66,-133.076)">
                <rect x="127.587" y="253.378" width="102.916" height="47.531" style="fill:rgb(77,55,52);"/>
            </g>
            <g id="local_grocery_store_48px" transform="matrix(5.33461,0,0,5.09282,402.336,263.462)">
                <g transform="matrix(1,0,0,1,-24,-24)">
                    <path d="M14,36C11.79,36 10.02,37.79 10.02,40C10.02,42.21 11.79,44 14,44C16.21,44 18,42.21 18,40C18,37.79 16.21,36 14,36ZM2,4L2,8L6,8L13.19,23.17L10.49,28.07C10.18,28.65 10,29.3 10,30C10,32.21 11.79,34 14,34L38,34L38,30L14.85,30C14.57,30 14.35,29.78 14.35,29.5C14.35,29.41 14.37,29.33 14.41,29.26L16.2,26L31.1,26C32.6,26 33.91,25.17 34.6,23.94L41.75,10.96C41.91,10.68 42,10.35 42,10C42,8.89 41.1,8 40,8L10.43,8L8.53,4L2,4ZM34,36C31.79,36 30.02,37.79 30.02,40C30.02,42.21 31.79,44 34,44C36.21,44 38,42.21 38,40C38,37.79 36.21,36 34,36Z" style="fill:rgb(148,213,253);fill-rule:nonzero;"/>
                </g>
            </g>
        </g>
    </g>
</svg>
